# xmcd
#
# Track frame offsets: 
#        150
#        4987
#        26662
#        40199
#        69599
#        91011
#        107961
#        126523
#        145310
#        166310
#        183560
#        206772
#        224359
#        247721
#
# Disc length: 3365 seconds
#
# Revision: 0
# Processed by: cddbd v1.5.2PL0 Copyright (c) Steve Scherf et al.
# Submitted via: ExactAudioCopy v1.3
#
DISCID=c90d230e
DTITLE=Gary Fletcher - River Keeps Flowing
DYEAR=2019
DGENRE=Blues
TTITLE0=Intro
TTITLE1=No Shadow on the Wall
TTITLE2=Don't You Come Creeping
TTITLE3=Hearsay
TTITLE4=You Just Can't Know
TTITLE5=Back to Your Heart
TTITLE6=I Couldn't Be Asking
TTITLE7=Something's Got to Change
TTITLE8=How Do You Live?
TTITLE9=Now so Long to Love
TTITLE10=Jacob Burkle
TTITLE11=It's Just Feel
TTITLE12=You Can, You Can
TTITLE13=Outro
EXTD=
EXTT0=
EXTT1=
EXTT2=
EXTT3=
EXTT4=
EXTT5=
EXTT6=
EXTT7=
EXTT8=
EXTT9=
EXTT10=
EXTT11=
EXTT12=
EXTT13=
PLAYORDER=
